<svg viewBox="-0.4 -0.4 101.6 19.3" xmlns="http://www.w3.org/2000/svg" fill="none" aria-hidden="true"><g> <g> <path d="M0 3.98236C0 3.48434 0.395858 3.08496 0.841499 3.08496H5.86881C8.61814 3.08496 10.8471 5.35433 10.8471 8.09747C10.8471 10.8406 8.61734 13.0599 5.86881 13.0599H1.70789V17.5986C1.70789 18.0473 1.31203 18.4467 0.841499 18.4467C0.370966 18.4467 0 18.0473 0 17.5986V3.98236ZM1.70869 4.83045V11.3629H5.86962C7.67707 11.3629 9.11357 9.86721 9.11357 8.09666C9.11357 6.32611 7.67707 4.83045 5.86962 4.83045H1.70869Z" fill="currentColor"/> <path d="M22.678 3.08496C23.1237 3.08496 23.5195 3.48354 23.5195 3.98236C23.5195 4.43106 23.1237 4.83045 22.678 4.83045H14.6782V9.91814H21.6872C22.1585 9.91814 22.5295 10.3175 22.5295 10.7662C22.5295 11.2408 22.1585 11.6143 21.6872 11.6143H14.6782V16.6996H22.678C23.1237 16.6996 23.5195 17.124 23.5195 17.5978C23.5195 18.0465 23.1237 18.4459 22.678 18.4459H13.8359C13.3645 18.4459 12.9695 18.0465 12.9695 17.5978V3.98236C12.9695 3.45928 13.3653 3.08496 13.8359 3.08496H22.678Z" fill="currentColor"/> <path d="M30.8416 4.83045V17.5978C30.8416 18.0465 30.4458 18.4459 29.9744 18.4459C29.5288 18.4459 29.1321 18.0465 29.1321 17.5978V4.83045H25.1687C24.7231 4.83045 24.3264 4.43106 24.3264 3.98236C24.3264 3.48434 24.7231 3.08496 25.1687 3.08496H34.8034C35.249 3.08496 35.6208 3.48354 35.6208 3.98236C35.6208 4.43106 35.249 4.83045 34.8034 4.83045H30.8416Z" fill="currentColor"/> <path d="M37.2966 3.98236C37.2966 3.48434 37.6925 3.08496 38.1381 3.08496H43.1654C45.9148 3.08496 48.1438 5.35433 48.1438 8.09747C48.1438 10.8406 45.914 13.0599 43.1654 13.0599H39.0045V17.5986C39.0045 18.0473 38.6087 18.4467 38.1381 18.4467C37.6676 18.4467 37.2966 18.0473 37.2966 17.5986V3.98236ZM39.0053 4.83045V11.3629H43.1663C44.9737 11.3629 46.4102 9.86721 46.4102 8.09666C46.4102 6.32611 44.9737 4.83045 43.1663 4.83045H39.0053Z" fill="currentColor"/> <path d="M85.3872 3.08496C85.8826 3.08496 86.2785 3.48434 86.2785 3.98236V12.7858C86.2785 15.9024 83.7781 18.4216 80.6811 18.4459C80.2114 18.4459 79.8147 18.0716 79.8147 17.5978C79.8147 17.124 80.1857 16.6996 80.6811 16.6996C82.8113 16.6996 84.5698 14.9541 84.5698 12.785V3.98236C84.5698 3.48434 84.9408 3.08496 85.3864 3.08496H85.3872Z" fill="currentColor"/> <path d="M93.2723 3.60902C93.396 3.26057 93.7677 3.08594 94.1138 3.08594C94.4599 3.08594 94.7835 3.26138 94.9561 3.60902L100.653 17.2495C100.851 17.6974 100.653 18.1712 100.207 18.3717C100.108 18.4218 100.009 18.446 99.8847 18.446C99.5627 18.446 99.2648 18.2472 99.1171 17.923L97.8548 14.93H90.3504L89.1122 17.923C88.9894 18.248 88.6425 18.446 88.3197 18.446C88.2201 18.446 88.0965 18.4218 87.9969 18.3717C87.5513 18.1728 87.3529 17.6982 87.5513 17.2495L93.2723 3.60902ZM94.1138 5.97864L91.0682 13.2347H97.1121L94.1138 5.97864Z" fill="currentColor"/> </g> <g> <path d="M60.2724 18.4671C55.2154 18.4671 51.1018 14.3253 51.1018 9.23353C51.1018 4.14179 55.2154 0 60.2724 0C65.3294 0 69.443 4.14179 69.443 9.23353C69.443 9.70244 69.0656 10.0824 68.5999 10.0824C68.1341 10.0824 67.7568 9.70244 67.7568 9.23353C67.7568 5.07799 64.3988 1.69698 60.2716 1.69698C56.1444 1.69698 52.7864 5.07799 52.7864 9.23353C52.7864 13.3891 56.1444 16.7701 60.2716 16.7701C60.7373 16.7701 61.1147 17.1501 61.1147 17.619C61.1147 18.0879 60.7373 18.4679 60.2716 18.4679L60.2724 18.4671Z" fill="#C42031"/> <path d="M70.3647 18.4671C66.1082 18.4671 62.645 14.9802 62.645 10.6945C62.645 10.2256 63.0224 9.84561 63.4881 9.84561C63.9538 9.84561 64.3312 10.2256 64.3312 10.6945C64.3312 14.044 67.038 16.7693 70.3647 16.7693C73.6913 16.7693 76.3981 14.044 76.3981 10.6945C76.3981 7.34501 73.6913 4.61966 70.3647 4.61966C69.8989 4.61966 69.5215 4.23968 69.5215 3.77077C69.5215 3.30186 69.8989 2.92188 70.3647 2.92188C74.6211 2.92188 78.0843 6.4088 78.0843 10.6945C78.0843 14.9802 74.6211 18.4671 70.3647 18.4671Z" fill="#C42031"/> </g> </g></svg>