<svg xmlns="http://www.w3.org/2000/svg" viewBox="0 0 200 150"><rect width="200" height="150" fill="#3A2A1C"/><ellipse cx="100" cy="112" rx="80" ry="30" fill="#2B2724"/><path d="M56 118 Q100 132 144 118 Q140 128 100 132 Q60 128 56 118 Z" fill="#8E939A"/><path d="M50 112 Q100 128 150 112 L146 106 Q100 118 54 106 Z" fill="#B9BEC4"/><path d="M74 52 L126 52 L120 108 Q100 116 80 108 Z" fill="#C6CBD1"/><path d="M78 56 L122 56 L117 104 Q100 110 83 104 Z" fill="#DEE2E6"/><path d="M82 62 L118 62 L114 84 Q100 90 86 84 Z" fill="#8A5A2E"/><ellipse cx="100" cy="62" rx="18" ry="5" fill="#C08A50"/><ellipse cx="100" cy="60" rx="13" ry="3.4" fill="#E6D0B0"/><path d="M88 44 q5 -8 0 -15" stroke="#FFFFFF" stroke-opacity=".18" stroke-width="2.4" fill="none" stroke-linecap="round"/><path d="M100 44 q5 -8 0 -15" stroke="#FFFFFF" stroke-opacity=".18" stroke-width="2.4" fill="none" stroke-linecap="round"/><path d="M112 44 q5 -8 0 -15" stroke="#FFFFFF" stroke-opacity=".18" stroke-width="2.4" fill="none" stroke-linecap="round"/></svg>