<svg xmlns="http://www.w3.org/2000/svg" viewBox="0 0 200 150"><rect width="200" height="150" fill="#2A2724"/><ellipse cx="100" cy="94" rx="84" ry="46" fill="#2B2724"/><ellipse cx="100" cy="92" rx="74" ry="38" fill="#E9E4D8"/><ellipse cx="54" cy="74" rx="11" ry="8" fill="#CB4E1E" transform="rotate(-30 54 74)"/><ellipse cx="86" cy="86" rx="12" ry="9" fill="#B23A18" transform="rotate(7 86 86)"/><ellipse cx="100" cy="98" rx="13" ry="8" fill="#CB4E1E" transform="rotate(-16 100 98)"/><ellipse cx="114" cy="78" rx="11" ry="9" fill="#B23A18" transform="rotate(21 114 78)"/><ellipse cx="58" cy="90" rx="12" ry="8" fill="#CB4E1E" transform="rotate(-2 58 90)"/><ellipse cx="72" cy="102" rx="13" ry="9" fill="#B23A18" transform="rotate(-25 72 102)"/><ellipse cx="104" cy="82" rx="11" ry="8" fill="#CB4E1E" transform="rotate(12 104 82)"/><ellipse cx="118" cy="94" rx="12" ry="9" fill="#B23A18" transform="rotate(-11 118 94)"/><ellipse cx="132" cy="88" rx="13" ry="8" fill="#CB4E1E" transform="rotate(26 132 88)"/><path d="M66 66 q6 -7 13 -1" stroke="#3F6B2C" stroke-width="2.4" fill="none" stroke-linecap="round"/><path d="M85 72 q6 -7 13 -1" stroke="#3F6B2C" stroke-width="2.4" fill="none" stroke-linecap="round"/><path d="M104 78 q6 -7 13 -1" stroke="#3F6B2C" stroke-width="2.4" fill="none" stroke-linecap="round"/><path d="M123 66 q6 -7 13 -1" stroke="#3F6B2C" stroke-width="2.4" fill="none" stroke-linecap="round"/><path d="M142 72 q6 -7 13 -1" stroke="#3F6B2C" stroke-width="2.4" fill="none" stroke-linecap="round"/></svg>